<svg xmlns="http://www.w3.org/2000/svg" viewBox="0 0 147 167.47"><defs><style>.cls-1{fill:#212223;}</style></defs><g id="Layer_2" data-name="Layer 2"><g id="Landing_Page_Qui_som" data-name="Landing Page/Qui som"><path class="cls-1" d="M27.52,38.9a30.9,30.9,0,0,1,13.92-3.53,36.53,36.53,0,0,0,5.07-1,14.92,14.92,0,0,0-2-1.89c-3.42-1.95-6.86-3.84-10.3-5.73-2.54-1.4-7.23-.69-9.4,1.4a8.11,8.11,0,0,0-1.56,9.21C24.2,39.43,25.37,40.1,27.52,38.9Z"/><path class="cls-1" d="M123.25,117.36a9.77,9.77,0,0,1-3.15-4.3c-1.89-5.35-3.09-11-5.23-16.2C112,89.8,108.52,83,105.22,76.08c-.68-1.43-.66-2.33.79-3.29a73.74,73.74,0,0,0,6.72-5.1c4.15-3.55,5.73-10.32,3.57-14.68-4.06-8.2-15.42-12.16-23.67-7.93C87.34,47.8,82.29,51,77.22,54.13c-2.32,1.43-4.46,2-6.83.28-1.93-1.39-3.91-2.69-5.86-4-5.63-3.93-11.47-7.3-19-6.52-4-.3-7.48,1.42-10.75,4.15a12.85,12.85,0,0,0-4.07,14.67c1.38,3.71,4.31,5.89,7.33,8,1.41,1,3.68,1.82,4,3.1s-1.09,3.28-1.79,4.93c-3.31,7.82-6.73,15.6-9.91,23.48a72.36,72.36,0,0,0-3.5,11c-.41,1.79-.86,3.09-2.49,4-3.89,2.13-5.62,5.69-6.23,9.9-.28,1.93.58,2.91,2.55,2.62,4.08-.58,8.15-1.31,12.24-1.85,6.09-.81,12.18-1.64,18.29-2.2,4-.36,7.93-.2,11.9-.37A296.06,296.06,0,0,1,109,126.93c5.69.63,11.32,1.74,17,2.65,1.4.22,2.73.45,2.74-1.65C128.73,123.45,126.82,120.07,123.25,117.36ZM94.47,69.92C92.13,72.71,89.12,73,85.76,73a80.47,80.47,0,0,0-9-1.67c-2.59-.2-5.23.33-7.85.51-3.92.25-7.84.51-11.77.69a4,4,0,0,1-2-.57c-4.22-2.28-8.46-4.53-12.61-7-2.61-1.52-5.55-2.69-6.82-5.88a7.61,7.61,0,0,1,1.85-8.25,7.51,7.51,0,0,1,7.88-2c5.64,1.68,9.13,6.1,13.21,9.81a13.18,13.18,0,0,1,1.1,1.14c3.46,3.94,7.88,5,13,4.94,4.31,0,8.49,0,12-2.84a61.62,61.62,0,0,0,6.39-5.91,29.74,29.74,0,0,1,10.27-7.2c4.18-1.78,10.41,2,10.46,6.58,0,3.7-1.28,6.65-4.94,8.24-3.22,1.39-6.36,2.95-9.51,4.48A8.58,8.58,0,0,0,94.47,69.92Z"/><path class="cls-1" d="M104.86,35.4c3.52.64,7.09,1.05,10.54,1.93a47.86,47.86,0,0,1,6.69,2.81c.51-.73.85-1.24,1.21-1.74a8.61,8.61,0,0,0-.66-10c-1.73-2.09-6.71-3-9.33-1.7-3.59,1.84-7.14,3.74-10.67,5.67-1.35.73-1.64,1.65,0,2.43A9,9,0,0,0,104.86,35.4Z"/><path class="cls-1" d="M25.44,136.45a36.6,36.6,0,0,1,4,2.67c6.54,5.89,13.27,11.6,19.47,17.82,10.12,10.16,26.27,14.44,40.7,6.14,6.15-3.54,11.33-8.82,16.79-13.5,5-4.25,9.73-8.76,14.49-13.07A761.12,761.12,0,0,0,25.44,136.45Z"/><path class="cls-1" d="M132.9,6.21A31.56,31.56,0,0,0,124,1.3a24.86,24.86,0,0,0-16.09.29C98.8,4.71,89.76,8.21,80.45,10.71a27.24,27.24,0,0,1-13.54.19c-9.65-2.57-19-6.36-28.51-9.36-5.95-1.86-11.93-2.42-18,.54C13.82,5.32,9,10.25,4.63,16.05A22.84,22.84,0,0,0,0,30C0,40.24,4.93,48.6,11,56.56a9.09,9.09,0,0,0-.17-1.74C9,48.53,8.37,42.1,8,35.56a16.24,16.24,0,0,1,.18-3.32,23.59,23.59,0,0,1,3.91-10.35,24.71,24.71,0,0,1,13.24-9.28c1.91-.61,4.45-1.85,7.61-1.19a46,46,0,0,1,10.76,4.12C52.9,20.07,62,24.88,71.18,29.4a6.35,6.35,0,0,0,4.54.19,99.89,99.89,0,0,0,10.8-4.91c7.31-3.82,14.45-8,21.83-11.65a15.32,15.32,0,0,1,9.48-1.83,13.85,13.85,0,0,1,4.08,1.5c4.49,2.22,11.15,5.53,14.64,12.71a22.25,22.25,0,0,1,1.71,5.12c1.07,4.83,2.46,8.56-1.08,19.41-.54,1.66-.44,3.53-.7,5.87a11.63,11.63,0,0,0,1.27-1,40.83,40.83,0,0,0,8.4-17.14c1.79-8.68,1.14-17.25-5.71-24.1C138,11.05,135.67,8.31,132.9,6.21Z"/></g></g></svg>